# xmcd
#
# Track frame offsets: 
#        150
#        22492
#        42462
#        57725
#        76767
#        95312
#        115472
#        135020
#        153390
#        174945
#        197945
#        218070
#        237777
#        253862
#
# Disc length: 3485 seconds
#
# Revision: 7
# Processed by: cddbd v1.5.2PL0 Copyright (c) Steve Scherf et al.
# Submitted via: ExactAudioCopy v1.0b3
#
DISCID=c00d9b0e
DTITLE=Profyle - Nothin' But Drama
DYEAR=2000
DGENRE=R&B
TTITLE0=Liar
TTITLE1=(Can We) M.A.K.E. L.U.V.
TTITLE2=Damn
TTITLE3=Can We Talk (About Us)
TTITLE4=Nasty
TTITLE5=Every Little Thing
TTITLE6=I Do
TTITLE7=Changes
TTITLE8=Can We Make Love
TTITLE9=You Bring The Freak
TTITLE10=One Night
TTITLE11=Addicted
TTITLE12=No Trickin' Feat. Rasheeda
TTITLE13=Thank You (Interlude)
EXTD=
EXTT0=
EXTT1=
EXTT2=
EXTT3=
EXTT4=
EXTT5=
EXTT6=
EXTT7=
EXTT8=
EXTT9=
EXTT10=
EXTT11=
EXTT12=
EXTT13=
PLAYORDER=
